# xmcd
#
# Track frame offsets:
#	150
#	26979
#	51140
#	70893
#	95732
#	118245
#	138201
#	160808
#	175737
#	204064
#
# Disc length: 2999 seconds
#
# Revision: 3735641
# Processed by: cddbd v1.5.2PL0 Copyright (c) Steve Scherf et al.
# Submitted via: EZCDAudioConverter 8.0.2.1
#
DISCID=880bb50a
DTITLE=Tâm Phương Anh - Căn Nhà Dĩ Vãng
DYEAR=2010
DGENRE=
TTITLE0=Tâm Phương Anh - Màu hoa Pensee
TTITLE1=Tâm Phương Anh - Biết đâu tìm
TTITLE2=Tâm Phương Anh, Quang Lê - Phận gái thuyền quyên
TTITLE3=Tâm Phương Anh - Hương tình cũ
TTITLE4=Tâm Phương Anh - Nửa đêm thương nhớ
TTITLE5=Tâm Phương Anh, Duy Trường - Chuyện buồn ngày xưa
TTITLE6=Tâm Phương Anh - Vòng tay nào cho em
TTITLE7=Tâm Phương Anh, Mạnh Quỳnh - Tàu về quê hương
TTITLE8=Tâm Phương Anh - Căn Nhà Dĩ Vãng
TTITLE9=Tâm Phương Anh - Tình đêm liên hoan
EXTD=
EXTT0=
EXTT1=
EXTT2=
EXTT3=
EXTT4=
EXTT5=
EXTT6=
EXTT7=
EXTT8=
EXTT9=
PLAYORDER=
